<?xml version="1.0" standalone="no"?>
<!DOCTYPE svg PUBLIC "-//W3C//DTD SVG 20010904//EN"
 "http://www.w3.org/TR/2001/REC-SVG-20010904/DTD/svg10.dtd">
<svg version="1.0" xmlns="http://www.w3.org/2000/svg"
 width="3632.000000pt" height="1446.000000pt" viewBox="0 0 3632.000000 1446.000000"
 preserveAspectRatio="xMidYMid meet">

<g transform="translate(0.000000,1446.000000) scale(0.100000,-0.100000)"
fill="#000000" stroke="none">
<path d="M0 7230 l0 -7230 18160 0 18160 0 0 7230 0 7230 -18160 0 -18160 0 0
-7230z m6216 6725 c2 -11 3 -261 2 -555 l-3 -535 -2872 -2 -2873 -3 0 553 c0
305 2 556 4 558 2 2 1294 4 2871 4 2858 0 2866 0 2871 -20z m11189 -1465 l0
-445 -44 -3 c-26 -2 -47 1 -51 8 -9 14 -12 820 -4 863 6 26 8 28 52 25 l47 -3
0 -445z m-1800 400 c6 -10 102 -353 141 -505 13 -49 31 -108 40 -130 l17 -40
28 100 c16 55 35 123 43 150 8 28 28 95 44 150 16 55 35 123 43 150 7 28 21
69 31 93 18 40 21 42 63 42 55 0 55 0 100 -167 19 -70 46 -168 60 -218 13 -49
37 -138 52 -197 14 -60 30 -108 35 -108 4 0 8 6 8 14 0 8 25 106 55 218 30
112 69 255 86 318 17 63 36 121 41 128 12 14 108 17 108 3 0 -9 -73 -272 -156
-561 -20 -69 -46 -160 -57 -202 -23 -83 -30 -88 -112 -88 -31 0 -34 3 -59 71
-14 38 -26 76 -26 83 0 8 -11 51 -24 97 -13 46 -41 144 -61 218 -21 74 -43
148 -50 165 l-13 31 -7 -30 c-10 -46 -142 -513 -162 -575 l-18 -55 -50 -3
c-27 -1 -56 1 -62 6 -12 7 -32 69 -116 357 -92 314 -126 433 -132 463 l-7 32
56 0 c30 0 58 -4 61 -10z m5099 -292 c-3 -167 -7 -309 -10 -315 -2 -8 -20 -13
-42 -13 -38 0 -40 2 -46 38 -3 20 -6 162 -6 315 l0 277 55 0 54 0 -5 -302z
m-3702 60 c87 -26 151 -125 164 -255 10 -92 12 -91 -222 -93 -108 0 -200 -3
-204 -5 -20 -12 17 -113 55 -151 47 -48 168 -52 260 -10 65 30 80 24 70 -28
-9 -50 -96 -96 -196 -104 -56 -4 -75 -1 -121 20 -74 34 -122 79 -154 144 -23
47 -27 68 -28 152 -1 106 12 162 53 225 28 44 92 91 142 105 48 14 135 14 181
0z m979 1 c24 -8 39 -19 43 -33 6 -24 8 -86 2 -86 -2 0 -25 9 -51 21 -69 31
-166 24 -217 -14 -108 -83 -118 -300 -19 -390 63 -57 119 -59 269 -12 20 7 22
4 22 -28 0 -46 -24 -72 -89 -92 -129 -41 -285 25 -348 148 -51 100 -41 272 20
364 34 51 108 107 161 122 45 13 162 13 207 0z m562 -3 c63 -19 117 -64 153
-128 28 -50 29 -59 29 -173 0 -133 -8 -160 -70 -231 -85 -100 -214 -137 -327
-94 -75 28 -149 95 -178 162 -32 72 -32 229 0 304 33 77 104 140 181 163 51
14 160 13 212 -3z m711 0 c18 -7 47 -31 64 -51 l31 -38 44 40 c55 51 102 66
183 61 71 -4 104 -23 142 -78 37 -55 43 -98 40 -327 l-3 -218 -50 0 -50 0 -5
225 c-4 191 -8 230 -23 258 -20 37 -51 52 -105 52 -53 0 -81 -18 -116 -74
l-30 -49 -5 -206 -6 -206 -45 0 -45 0 -5 215 c-3 122 -11 226 -17 240 -6 14
-23 38 -37 54 -25 26 -32 28 -86 24 -64 -5 -90 -20 -119 -73 -13 -24 -17 -71
-21 -245 l-5 -215 -50 0 -50 0 0 300 0 300 50 0 c44 0 50 -3 53 -22 4 -29 8
-29 49 3 19 14 46 30 61 34 43 13 120 11 156 -4z m1041 -5 c81 -37 134 -129
142 -252 5 -72 4 -76 -16 -82 -12 -3 -106 -6 -209 -6 -103 0 -193 -1 -200 -1
-29 0 15 -115 60 -157 39 -36 107 -49 180 -34 35 7 78 22 95 33 37 22 53 17
53 -15 0 -52 -11 -65 -78 -94 -152 -64 -325 -12 -392 118 -40 78 -43 254 -6
343 22 52 86 117 141 142 64 30 170 33 230 5z m418 -523 c31 -36 20 -66 -39
-104 -53 -36 -117 60 -74 111 25 30 84 26 113 -7z m1980 -741 c65 -13 64 -10
69 -432 6 -452 3 -495 -35 -533 l-27 -27 -1778 -3 c-977 -2 -1810 0 -1851 3
-65 6 -77 11 -101 37 l-27 29 -8 420 -7 420 26 40 c15 22 35 43 46 47 26 9
3645 8 3693 -1z m-4446 -61 l28 -24 0 -417 0 -417 -31 -28 -32 -28 -328 -7
c-181 -4 -1366 -5 -2634 -1 l-2305 7 -35 34 -35 35 -3 383 c-1 210 0 392 3
404 3 12 17 35 31 52 l26 31 2643 0 2644 0 28 -24z m-2169 -6189 l2 -4779
-6885 3 c-4809 2 -6885 6 -6886 13 0 6 -1 2154 -2 4773 -1 3168 1 4764 8 4767
6 3 3104 4 6885 3 l6875 -2 3 -4778z m10300 1826 c5 -18 -28 -29 -38 -12 -5 7
-6 17 -3 22 7 12 35 5 41 -10z m850 -39 l3 -50 49 0 c26 1 52 -3 56 -7 10 -10
23 -156 16 -175 -2 -7 -12 -12 -21 -10 -13 3 -17 18 -19 73 -3 72 -10 85 -49
85 -26 0 -31 -16 -35 -100 -2 -43 -7 -56 -20 -58 -17 -3 -18 9 -18 148 0 139
1 151 18 148 13 -2 18 -15 20 -54z m-1139 -62 c25 -51 49 -91 54 -89 5 1 19
27 31 57 46 114 57 130 82 130 l25 0 -3 -137 c-3 -122 -5 -138 -20 -141 -16
-3 -18 6 -18 82 0 52 -4 86 -10 86 -6 0 -13 -8 -17 -17 -16 -50 -57 -134 -69
-144 -10 -8 -23 10 -59 85 -25 53 -48 96 -51 96 -3 0 -4 -42 -3 -92 2 -85 0
-93 -17 -93 -24 0 -28 35 -19 173 7 97 8 103 28 100 16 -2 33 -27 66 -96z
m285 -84 c2 -89 0 -98 -16 -98 -16 0 -18 10 -18 101 0 88 2 100 16 97 14 -2
17 -19 18 -100z m194 80 c3 -15 -4 -18 -42 -18 -37 0 -48 -4 -62 -25 -31 -47
16 -103 76 -90 29 6 31 5 28 -17 -2 -19 -10 -23 -46 -26 -38 -3 -47 1 -77 31
-39 39 -44 70 -20 117 20 40 42 50 95 47 34 -1 46 -6 48 -19z m142 12 c12 -7
11 -10 -5 -15 -47 -15 -50 -20 -53 -99 -3 -68 -5 -76 -22 -76 -18 0 -20 7 -20
94 l0 95 33 4 c17 2 37 4 42 5 6 1 17 -2 25 -8z m192 -20 c11 -14 18 -39 18
-67 0 -61 -40 -103 -100 -103 -93 0 -132 109 -64 177 22 22 32 25 77 20 37 -3
56 -11 69 -27z m203 24 c21 -9 45 -56 45 -92 0 -16 -10 -44 -23 -63 -21 -31
-28 -34 -69 -33 -49 0 -58 -9 -58 -62 0 -23 -25 -40 -35 -24 -3 5 -5 68 -3
139 l3 130 40 4 c76 7 83 7 100 1z m436 -4 c24 -13 49 -61 49 -94 0 -14 -14
-41 -31 -61 -26 -29 -38 -35 -71 -35 -56 0 -98 42 -98 100 0 76 83 126 151 90z
m239 -10 c5 -8 10 -26 10 -40 0 -14 3 -49 6 -77 6 -44 4 -54 -10 -59 -24 -9
-28 -3 -33 73 -5 70 -13 83 -50 83 -26 0 -31 -16 -35 -100 -3 -47 -6 -55 -23
-55 -18 0 -19 7 -17 90 1 50 2 93 2 96 0 3 32 5 70 5 52 -1 73 -5 80 -16z
m195 -5 c28 -27 33 -70 9 -79 -9 -3 -36 -6 -60 -6 -31 0 -44 -4 -44 -14 0 -26
27 -38 70 -31 41 7 46 2 34 -29 -4 -11 -19 -16 -51 -16 -84 0 -129 81 -88 160
24 46 92 54 130 15z m110 5 c0 -9 -11 -16 -27 -18 -20 -2 -28 1 -28 12 0 8 6
17 13 19 21 9 42 2 42 -13z m293 5 c24 -17 41 -67 34 -103 -7 -38 -56 -82 -91
-82 -68 0 -101 36 -101 111 0 56 34 89 92 89 24 0 53 -7 66 -15z m232 -2 c2
-2 5 -43 5 -91 0 -74 -3 -87 -17 -90 -15 -3 -18 7 -20 75 l-3 78 -35 0 c-28 0
-35 -4 -37 -20 -12 -125 -15 -136 -31 -133 -14 3 -18 20 -22 96 -3 52 -4 95
-3 96 4 3 158 -6 163 -11z m-530 -153 c0 -23 -26 -38 -41 -23 -14 14 0 43 22
43 12 0 19 -7 19 -20z m-3327 -652 c61 -23 62 -31 62 -483 l0 -410 -29 -37
c-17 -24 -42 -42 -65 -48 -24 -8 -310 -10 -886 -8 -800 3 -853 4 -878 21 -16
10 -37 32 -48 50 -19 31 -19 48 -17 443 l3 411 28 36 c25 33 32 36 85 39 158
8 1719 -4 1745 -14z m6890 0 c58 -22 57 -15 57 -471 0 -456 -2 -471 -56 -496
-36 -16 -1773 -16 -1808 1 -55 25 -55 21 -58 488 l-3 431 35 29 c45 37 1 36
1000 32 547 -2 814 -7 833 -14z m-4564 -17 l31 -29 0 -427 c0 -465 0 -468 -57
-494 -17 -8 -294 -11 -909 -11 l-886 0 -34 34 -34 34 0 435 0 436 33 25 32 26
896 0 897 0 31 -29z m2293 0 l33 -29 4 -114 c2 -62 0 -259 -4 -437 l-7 -325
-28 -28 -28 -28 -895 0 -895 0 -31 26 -31 26 0 441 0 441 27 28 27 28 898 0
898 0 32 -29z m2736 -1853 l3 -47 43 5 c61 9 76 -15 76 -119 0 -76 -1 -78 -22
-75 -21 3 -23 10 -28 73 l-5 70 -30 0 -30 0 -5 -70 c-4 -62 -7 -70 -25 -70
-19 0 -20 8 -23 143 l-3 143 23 -3 c20 -3 23 -10 26 -50z m389 36 c2 -6 -8
-16 -22 -22 -30 -14 -32 -33 -5 -50 11 -7 20 -18 20 -26 0 -7 -9 -16 -20 -19
-18 -5 -20 -14 -20 -76 l0 -71 -30 0 -30 0 0 69 c0 52 -4 70 -15 75 -19 7 -20
35 -1 42 8 3 16 18 19 33 9 41 34 63 70 59 17 -2 32 -8 34 -14z m-1384 -11
c15 -14 -18 -33 -60 -33 -44 0 -44 0 -41 -32 3 -31 6 -33 46 -36 23 -2 42 -7
42 -13 0 -5 1 -12 3 -16 1 -5 -18 -10 -43 -13 -42 -5 -45 -7 -45 -35 0 -29 2
-30 47 -33 31 -2 48 -8 52 -19 10 -25 -13 -33 -89 -31 l-70 3 -3 119 c-1 66 0
126 2 133 6 14 146 19 159 6z m189 -82 c19 -16 22 -28 22 -97 1 -78 1 -79 -24
-79 -24 0 -25 3 -28 65 -3 74 -10 85 -46 76 -25 -6 -26 -9 -26 -77 l0 -70 -27
3 c-16 2 -28 9 -27 16 1 6 2 50 3 96 l1 84 65 0 c48 0 70 -4 87 -17z m232 -2
c22 -17 26 -28 26 -69 0 -63 -6 -78 -41 -95 -58 -30 -121 -16 -144 32 -23 47
-12 106 23 132 36 27 101 27 136 0z m114 -56 c2 -53 7 -73 18 -77 20 -8 54 10
56 29 1 13 4 62 7 111 1 10 9 14 23 12 22 -3 23 -7 23 -94 l0 -92 -44 -6 c-84
-11 -99 -8 -116 24 -9 18 -15 56 -15 100 0 68 1 71 23 68 20 -3 22 -9 25 -75z
m355 -37 c-1 -60 -7 -122 -14 -137 -13 -34 -53 -48 -116 -41 -37 4 -43 7 -43
28 0 22 3 23 50 17 47 -5 50 -4 60 21 5 15 10 34 10 42 0 13 -3 13 -22 0 -34
-24 -66 -19 -100 14 -27 28 -30 36 -25 73 4 30 15 50 37 69 27 25 36 28 98 25
l67 -2 -2 -109z m680 83 c33 -41 19 -132 -24 -154 -75 -39 -159 4 -159 82 0
39 20 72 55 92 30 17 107 5 128 -20z m177 16 c0 -15 -15 -35 -26 -35 -23 0
-44 -43 -44 -92 0 -49 -8 -62 -34 -52 -13 5 -16 23 -16 95 l0 88 48 3 c44 3
72 0 72 -7z m-9579 -195 c30 -17 24 -40 -11 -40 -22 0 -30 5 -30 18 0 32 11
37 41 22z m4797 -18 c3 -19 -1 -22 -27 -22 -33 0 -41 16 -19 38 18 18 43 10
46 -16z m-5990 12 c34 -10 21 -28 -24 -34 l-39 -5 -3 -112 c-3 -112 -3 -113
-27 -113 -24 0 -24 1 -27 113 l-3 112 -32 3 c-31 3 -42 19 -26 35 8 9 150 9
181 1z m622 -59 c16 -36 34 -84 41 -108 6 -23 17 -54 25 -69 14 -28 14 -28
-17 -28 -25 0 -33 6 -42 30 -12 31 -19 34 -79 24 -27 -5 -38 -12 -42 -30 -5
-17 -13 -24 -31 -24 -32 0 -31 8 4 111 49 142 58 159 87 159 21 0 29 -10 54
-65z m3424 59 c9 -3 39 -44 67 -90 28 -46 55 -81 60 -78 5 3 9 40 9 84 0 62 3
79 16 84 29 11 34 -5 34 -112 0 -137 -5 -154 -38 -150 -20 2 -39 22 -81 86
-31 45 -59 82 -64 82 -5 0 -7 -33 -5 -72 6 -88 3 -98 -28 -98 l-24 0 0 128 c0
71 3 132 7 135 8 9 26 9 47 1z m1093 -38 c27 -29 33 -44 33 -81 0 -26 -9 -63
-20 -86 l-21 -39 27 -25 c14 -13 23 -29 19 -34 -12 -20 -55 -12 -77 14 -17 20
-31 25 -68 25 -53 0 -91 23 -115 70 -20 38 -19 69 4 122 24 57 67 80 135 75
42 -4 55 -10 83 -41z m-401 0 c3 -13 16 -28 30 -35 31 -14 31 -28 -1 -43 -20
-9 -25 -18 -25 -48 0 -24 7 -43 20 -55 31 -28 25 -45 -15 -45 -42 0 -55 20
-55 84 0 33 -6 50 -22 65 l-21 21 -24 -32 c-29 -40 -29 -53 2 -94 32 -41 31
-44 -5 -44 -23 0 -33 6 -42 25 -6 14 -15 25 -19 25 -5 0 -16 -11 -25 -25 -10
-15 -26 -25 -40 -25 -29 0 -31 21 -4 45 33 30 34 53 5 91 -46 60 -15 88 36 33
16 -18 31 -30 33 -28 2 2 9 14 15 27 9 18 20 22 57 22 31 0 46 5 49 15 3 8 7
22 10 30 7 23 34 18 41 -9z m1124 1 c0 -16 9 -28 25 -35 30 -14 32 -28 6 -42
-38 -20 -38 -103 0 -115 10 -4 19 -13 19 -21 0 -17 -85 -20 -95 -4 -4 6 -7 35
-7 65 0 34 -6 59 -14 66 -19 15 -18 48 1 55 8 4 15 14 15 23 0 23 9 31 32 31
12 0 18 -7 18 -23z m-5548 -104 c-69 -198 -85 -223 -137 -223 -44 0 -47 24 -6
38 41 15 44 49 10 135 -27 70 -29 72 -61 70 -43 -2 -58 -26 -58 -90 0 -49 -2
-53 -24 -53 -23 0 -25 4 -31 73 -11 117 -15 112 95 112 l94 0 16 -52 c9 -29
18 -54 21 -58 3 -3 16 20 29 51 41 97 86 95 52 -3z m583 -58 c0 -121 -1 -128
-24 -146 -17 -14 -39 -19 -82 -19 -32 0 -59 3 -60 8 0 4 -2 15 -4 24 -3 15 5
17 48 15 46 -2 52 1 66 25 19 33 12 42 -23 28 -43 -16 -93 12 -107 60 -11 35
-9 43 15 84 29 49 35 52 115 49 l56 -1 0 -127z m4483 32 l3 -97 -70 0 c-90 0
-101 13 -101 117 0 71 1 73 25 73 23 0 24 -3 27 -72 3 -68 5 -73 27 -76 31 -5
41 12 41 71 0 53 15 90 33 84 8 -2 13 -37 15 -100z m-4284 61 c8 -17 13 -59
12 -92 l-1 -61 -70 -3 c-77 -3 -95 8 -95 59 0 28 26 45 79 51 14 2 26 8 28 15
6 17 -30 25 -61 14 -22 -9 -26 -8 -26 7 0 30 21 42 72 42 45 0 50 -2 62 -32z
m114 -60 l-3 -93 -27 -3 -28 -3 0 95 0 96 30 0 31 0 -3 -92z m198 75 c8 -11
13 -47 14 -95 0 -76 -1 -78 -25 -78 -23 0 -24 3 -27 68 l-3 67 -30 0 -30 0 -3
-67 c-3 -65 -4 -68 -27 -68 -25 0 -25 1 -25 95 l0 95 71 0 c57 0 75 -4 85 -17z
m3029 -14 c14 -18 24 -38 21 -46 -4 -8 -6 -18 -6 -23 0 -4 -27 -11 -59 -15
-46 -5 -58 -10 -54 -21 6 -17 64 -19 80 -3 20 20 33 6 20 -21 -11 -22 -20 -25
-69 -28 -52 -3 -57 -1 -77 27 -50 69 -6 161 77 161 33 0 45 -6 67 -31z m1144
5 c22 -28 28 -69 11 -79 -5 -3 -32 -9 -60 -12 -67 -8 -60 -28 9 -27 56 2 56 2
41 -27 -8 -14 -21 -19 -56 -19 -58 0 -82 13 -100 55 -16 39 -7 75 28 113 32
33 99 31 127 -4z m179 -2 c3 -20 0 -23 -25 -22 -51 4 -57 2 -43 -15 7 -8 24
-21 38 -28 40 -19 48 -41 29 -71 -15 -23 -24 -26 -71 -26 -37 0 -56 4 -59 14
-8 20 2 26 45 26 49 0 48 14 -1 40 -51 25 -60 54 -30 86 19 21 31 24 69 22 39
-3 45 -6 48 -26z m232 -67 l0 -95 -30 0 -30 0 0 88 c0 49 3 92 7 95 3 4 17 7
30 7 22 0 23 -2 23 -95z m211 64 c38 -40 39 -86 3 -128 -23 -28 -32 -31 -79
-31 -57 0 -79 13 -96 57 -38 101 98 182 172 102z m224 11 c14 -16 19 -37 19
-93 1 -71 1 -72 -26 -75 -27 -3 -27 -3 -30 65 -3 65 -4 68 -29 71 -31 4 -39
-15 -39 -90 0 -46 -1 -48 -28 -48 l-28 0 2 93 c1 50 3 93 3 95 1 1 32 2 69 2
57 0 72 -4 87 -20z m3413 -318 l3 -142 -75 0 c-96 0 -116 17 -116 96 0 73 41
112 106 99 l34 -6 0 44 c0 48 6 59 30 55 12 -3 15 -26 18 -146z m-400 111 c-2
-12 -14 -19 -36 -21 -17 -2 -33 -9 -33 -15 -1 -7 -2 -57 -3 -112 l-1 -100 -30
0 -30 0 0 110 0 110 -30 3 c-35 4 -50 16 -41 31 5 7 46 11 107 11 90 0 100 -2
97 -17z m897 -73 c0 -83 -1 -85 -24 -85 -23 0 -24 3 -27 80 -1 43 0 83 3 88 3
4 15 7 26 5 21 -3 22 -9 22 -88z m-744 -9 c39 -39 41 -105 4 -145 -20 -21 -33
-26 -74 -26 -72 0 -104 30 -104 95 0 43 4 52 33 77 48 39 101 39 141 -1z m440
-3 c14 -15 19 -37 19 -79 0 -88 -1 -89 -85 -89 -79 0 -85 4 -85 60 0 29 18 40
83 55 46 10 26 30 -27 28 -33 -2 -46 1 -46 11 0 47 104 57 141 14z m82 20 c9
-7 20 -31 25 -52 10 -53 28 -56 48 -9 27 63 30 68 49 72 15 3 17 -2 13 -36 -3
-22 -20 -73 -37 -114 -18 -41 -36 -84 -41 -96 -13 -32 -55 -56 -85 -49 -29 7
-33 24 -7 33 45 16 69 71 43 99 -5 5 -16 34 -26 64 -10 30 -22 60 -27 67 -22
27 14 43 45 21z m231 -149 c13 -12 -12 -39 -36 -39 -21 0 -33 22 -24 46 6 16
40 12 60 -7z"/>
<path d="M510 13415 l0 -515 515 0 515 0 2 505 c2 278 2 510 0 515 -2 6 -185
10 -518 10 l-514 0 0 -515z m589 180 c39 -69 71 -127 71 -130 0 -3 -65 -5
-145 -5 -109 0 -145 3 -145 13 0 6 30 61 65 122 36 60 65 113 65 117 0 28 28
-8 89 -117z m127 -210 c4 -11 19 -39 35 -63 16 -24 29 -45 29 -46 0 -2 20 -39
45 -82 25 -44 45 -82 45 -86 0 -5 -20 -8 -44 -8 l-45 0 -55 98 c-31 53 -59
103 -64 110 -10 14 -72 28 -72 16 0 -4 18 -38 40 -76 50 -88 51 -98 3 -98 -34
0 -41 5 -70 48 -17 26 -38 61 -47 79 -20 39 -43 53 -90 53 -41 0 -52 -13 -132
-152 -44 -77 -45 -78 -84 -78 -30 0 -40 4 -40 16 0 22 139 262 160 277 12 8
75 12 199 12 173 0 182 -1 187 -20z"/>
<path d="M2026 13654 c-64 -20 -140 -95 -156 -155 -17 -63 -7 -158 21 -210 54
-97 164 -142 294 -120 38 6 83 20 100 29 30 18 30 18 33 120 l3 102 -51 0 -50
0 0 -70 c0 -85 -11 -94 -106 -88 -50 3 -69 9 -90 28 -37 34 -54 80 -54 141 0
49 3 55 45 96 44 41 48 43 108 43 44 0 71 -6 95 -20 43 -26 53 -25 86 9 l28
29 -36 27 c-69 53 -174 68 -270 39z"/>
<path d="M5018 13657 c-103 -29 -168 -109 -175 -215 -7 -95 9 -145 66 -202 61
-61 128 -85 217 -77 78 8 128 32 181 90 50 54 68 110 59 190 -6 62 -15 83 -53
135 -53 71 -191 108 -295 79z m124 -87 c53 -15 96 -55 108 -101 35 -130 -65
-240 -187 -207 -74 20 -113 76 -113 163 0 49 4 60 33 91 17 19 50 41 72 49 49
17 42 17 87 5z"/>
<path d="M2430 13415 l0 -245 55 0 55 0 0 245 0 245 -55 0 -55 0 0 -245z"/>
<path d="M2668 13653 c-2 -5 -2 -115 0 -245 l3 -238 49 0 49 0 -2 135 c-1 74
1 135 5 135 4 0 24 -27 45 -60 21 -33 52 -82 68 -108 18 -28 39 -48 52 -50 24
-4 32 7 118 155 27 45 52 80 57 77 5 -3 8 -67 6 -142 l-3 -137 46 -3 46 -3 7
225 c4 124 5 234 1 245 -5 17 -15 21 -50 21 l-43 0 -50 -82 c-27 -46 -66 -114
-87 -152 l-38 -69 -24 29 c-24 31 -143 227 -155 257 -6 12 -19 17 -52 17 -25
0 -46 -3 -48 -7z"/>
<path d="M3340 13415 l0 -245 50 0 49 0 3 141 3 140 57 -93 c32 -51 67 -104
78 -118 18 -24 21 -24 46 -10 18 10 47 51 83 117 31 56 59 102 64 103 4 0 7
-63 7 -140 l0 -140 55 0 55 0 0 245 0 245 -43 0 c-54 0 -55 -1 -147 -162 -40
-71 -76 -128 -81 -128 -12 0 -48 52 -123 178 l-67 112 -45 0 -44 0 0 -245z"/>
<path d="M4010 13415 l0 -245 191 0 190 0 -3 43 -3 42 -132 3 -133 3 0 43 c0
77 -1 76 121 76 l109 0 0 40 0 40 -115 0 -115 0 0 29 c0 16 3 41 6 57 l5 29
122 0 122 0 3 43 3 42 -185 0 -186 0 0 -245z"/>
<path d="M4460 13621 l0 -39 90 -8 90 -7 0 -134 c0 -129 -1 -135 -25 -158 -31
-32 -66 -32 -103 0 -17 14 -33 25 -36 25 -13 0 -55 -55 -56 -71 0 -18 69 -54
122 -64 53 -10 130 11 162 44 40 41 46 79 46 273 l0 178 -145 0 -145 0 0 -39z"/>
<path d="M5462 13418 l3 -243 140 -3 c166 -4 231 7 269 47 54 56 51 123 -9
181 l-35 34 26 27 c30 32 35 95 10 134 -33 51 -67 60 -244 63 l-162 4 2 -244z
m272 152 c34 -12 50 -44 36 -70 -17 -32 -64 -50 -129 -50 -72 0 -73 1 -63 113
2 14 12 17 66 17 36 0 76 -4 90 -10z m43 -214 c24 -21 26 -27 18 -52 -6 -16
-22 -34 -35 -41 -27 -14 -179 -18 -181 -5 -6 45 -8 99 -4 110 3 8 31 12 89 12
75 0 88 -3 113 -24z"/>
<path d="M16862 12580 c-18 -4 -44 -18 -58 -31 -28 -26 -76 -118 -68 -130 7
-12 311 -11 319 0 3 5 -4 34 -15 65 -30 78 -96 114 -178 96z"/>
<path d="M18329 12557 c-151 -102 -124 -393 41 -437 91 -25 190 13 224 85 24
49 32 169 16 234 -23 97 -80 141 -183 141 -50 0 -71 -5 -98 -23z"/>
<path d="M20098 12565 c-27 -15 -84 -99 -90 -132 -3 -17 8 -18 156 -21 l159
-3 -6 47 c-5 51 -31 92 -68 111 -32 17 -118 16 -151 -2z"/>
<path d="M20690 10892 l0 -140 58 -4 c79 -6 97 3 114 54 30 87 -12 143 -92
121 l-39 -10 -3 56 c-2 44 -7 57 -20 59 -16 3 -18 -9 -18 -136z m128 -8 c26
-18 27 -34 7 -74 -13 -24 -22 -30 -49 -30 -36 0 -46 12 -46 56 0 59 41 81 88
48z"/>
<path d="M21267 11014 c-14 -15 -6 -34 14 -34 14 0 19 5 17 17 -3 18 -20 27
-31 17z"/>
<path d="M20294 10996 c-31 -14 -44 -33 -44 -66 0 -20 53 -70 74 -70 17 0 46
-33 46 -52 0 -20 -21 -28 -76 -28 -31 0 -44 -4 -44 -14 0 -16 60 -28 101 -19
30 6 69 45 69 68 0 15 -54 63 -99 87 -35 19 -39 38 -14 63 12 13 26 15 55 11
29 -5 38 -3 38 8 0 28 -55 34 -106 12z"/>
<path d="M21373 10963 c-3 -10 -12 -25 -20 -34 -11 -14 -11 -18 2 -29 10 -8
15 -31 15 -69 0 -31 4 -61 8 -67 11 -16 42 -25 63 -19 26 9 24 20 -6 33 -22
10 -25 18 -25 61 0 43 3 50 22 53 29 4 34 25 9 33 -12 3 -24 17 -27 31 -7 28
-32 32 -41 7z"/>
<path d="M20464 10916 c-10 -26 1 -133 15 -150 10 -12 31 -16 77 -16 l64 0 0
90 c0 73 -3 90 -15 90 -11 0 -15 -12 -15 -49 0 -27 -4 -62 -10 -76 -8 -22 -15
-26 -42 -23 l-33 3 -5 69 c-5 68 -22 97 -36 62z"/>
<path d="M20923 10915 c-2 -7 -3 -47 -1 -91 2 -62 6 -79 18 -79 12 0 16 17 20
75 5 70 7 75 29 78 36 5 51 -22 51 -90 0 -51 2 -58 20 -58 17 0 19 8 22 68 3
66 4 67 32 70 37 5 46 -10 46 -80 0 -50 3 -58 19 -58 15 0 18 9 20 59 1 32 -3
70 -8 84 -13 33 -53 45 -84 24 -18 -12 -27 -12 -43 -4 -25 15 -135 16 -141 2z"/>
<path d="M21260 10841 c0 -85 1 -91 20 -91 20 0 21 5 18 87 -3 74 -6 88 -20
91 -16 3 -18 -6 -18 -87z"/>
<path d="M14008 10988 c9 -9 15 -9 24 0 9 9 7 12 -12 12 -19 0 -21 -3 -12 -12z"/>
<path d="M13195 10925 c-10 -80 -2 -184 16 -196 18 -12 95 -2 132 18 17 9 37
32 48 59 25 55 17 107 -22 146 -25 25 -34 28 -98 28 l-70 0 -6 -55z m144 26
c25 -14 55 -85 47 -115 -3 -13 -18 -38 -32 -55 -23 -28 -32 -31 -80 -31 l-54
0 0 105 0 105 51 0 c28 0 58 -4 68 -9z"/>
<path d="M14270 10938 c-13 -27 -13 -38 -3 -58 7 -14 13 -51 13 -83 0 -51 3
-59 23 -66 12 -5 25 -7 30 -4 12 7 8 23 -7 23 -19 0 -26 22 -26 85 0 46 3 54
23 59 20 7 21 8 3 15 -10 4 -24 20 -30 35 l-11 28 -15 -34z"/>
<path d="M13882 10933 c-8 -17 -11 -37 -7 -44 4 -6 11 -42 15 -81 4 -38 10
-71 13 -74 3 -3 18 -4 34 -2 l28 4 -27 12 c-31 13 -41 40 -36 103 3 40 5 44
27 41 16 -3 22 1 19 10 -3 7 -10 14 -16 14 -7 1 -16 2 -21 3 -5 0 -11 11 -13
24 -3 20 -4 19 -16 -10z"/>
<path d="M17970 10917 c0 -13 80 -97 93 -97 11 0 97 90 97 101 0 19 -32 8 -57
-21 -13 -16 -30 -30 -37 -30 -7 0 -25 14 -41 30 -30 31 -55 39 -55 17z"/>
<path d="M13475 10886 c-19 -19 -25 -35 -25 -70 0 -61 26 -86 92 -86 26 0 48
5 48 10 0 6 -22 10 -50 10 -38 0 -52 4 -60 19 -18 35 -12 41 43 41 29 0 61 6
70 13 16 11 16 14 0 47 -15 29 -24 35 -55 38 -29 3 -43 -2 -63 -22z m87 -3
c10 -9 18 -24 18 -34 0 -16 -8 -18 -55 -17 -63 2 -70 15 -27 47 33 25 40 25
64 4z"/>
<path d="M13699 10903 l-37 -4 -1 -85 c0 -47 4 -84 9 -84 6 0 10 27 10 60 0
51 4 65 24 85 26 26 51 25 74 -3 7 -9 12 -44 12 -80 0 -47 3 -62 13 -59 17 6
10 125 -9 155 -14 22 -20 23 -95 15z"/>
<path d="M14112 10894 c-32 -22 -28 -52 10 -72 17 -9 42 -27 55 -39 28 -27 33
-28 33 -9 0 8 -23 29 -50 47 -60 39 -63 63 -7 67 20 2 37 7 37 13 0 15 -54 10
-78 -7z"/>
<path d="M14010 10820 c0 -44 4 -80 8 -80 5 0 8 36 8 80 -1 44 -4 80 -8 80 -5
0 -8 -36 -8 -80z"/>
<path d="M14100 10740 c0 -5 18 -10 39 -10 22 0 43 5 46 10 4 6 -12 10 -39 10
-25 0 -46 -4 -46 -10z"/>
<path d="M2332 5138 l3 -4753 6857 -3 6858 -2 5 22 c3 13 4 2152 3 4753 l-3
4730 -6863 3 -6862 2 2 -4752z m13063 4492 c82 -26 144 -60 200 -108 117 -102
191 -236 206 -372 13 -126 11 -887 -2 -952 -14 -65 -67 -177 -114 -240 -70
-95 -196 -175 -322 -204 -61 -14 -673 -16 -6428 -17 -3498 0 -6366 2 -6373 7
-9 5 -12 162 -12 700 0 657 1 697 20 770 27 107 74 190 146 263 108 107 226
160 384 173 52 4 2824 6 6160 5 l6065 -3 70 -22z m405 -6795 c-3 -7 -1942 -10
-5785 -10 -6331 -1 -7455 1 -7455 16 0 5 2524 8 6623 7 4410 -2 6620 -6 6617
-13z m-8072 -468 l3 -147 64 0 c62 0 87 -12 68 -31 -16 -16 -164 -14 -174 2
-10 16 -12 312 -2 323 4 4 14 5 23 4 13 -3 15 -27 18 -151z m227 133 c0 -8
-10 -16 -22 -18 -18 -3 -23 2 -23 18 0 16 5 21 23 18 12 -2 22 -10 22 -18z
m883 -2 c3 -14 -6 -17 -45 -20 l-48 -3 -3 -145 c-3 -143 -7 -159 -39 -160 -9
0 -13 40 -15 153 l-3 152 -42 3 c-35 3 -43 7 -43 23 0 19 6 19 117 17 101 -3
118 -5 121 -20z m1317 2 c0 -18 -33 -26 -47 -12 -6 6 -7 15 -3 22 10 16 50 8
50 -10z m413 -37 c2 -24 8 -33 21 -33 22 0 45 -25 36 -40 -3 -5 -17 -10 -31
-10 -23 0 -24 -2 -24 -79 l0 -78 30 -6 c49 -10 39 -37 -14 -37 -62 0 -76 22
-76 121 0 59 -3 78 -15 83 -19 7 -20 42 -1 49 7 3 16 19 19 37 6 26 11 31 29
28 18 -2 24 -11 26 -35z m-305 -45 c6 -20 7 -20 31 -5 46 30 114 16 134 -28
33 -73 22 -147 -29 -190 -35 -28 -62 -31 -101 -11 l-28 15 0 -70 c0 -67 -1
-69 -25 -69 l-25 0 0 183 c0 101 3 187 7 190 13 14 31 6 36 -15z m-2313 -114
c0 -124 0 -125 -22 -122 -18 2 -23 9 -22 31 0 15 1 70 2 122 2 88 4 95 22 95
19 0 20 -7 20 -126z m104 79 c8 -27 20 -67 26 -90 12 -50 25 -55 34 -15 4 15
17 54 29 87 20 52 27 60 51 63 25 3 28 1 21 -15 -4 -10 -19 -47 -32 -83 -52
-140 -77 -175 -106 -146 -19 19 -90 223 -82 236 3 5 15 10 25 10 13 0 23 -13
34 -47z m355 21 c29 -24 56 -88 45 -106 -3 -4 -41 -8 -84 -8 -43 0 -81 -4 -84
-8 -3 -4 1 -19 8 -33 11 -22 18 -24 74 -23 43 1 62 -3 62 -11 0 -24 -32 -39
-83 -38 -45 1 -55 5 -84 37 -42 45 -45 105 -10 157 42 63 105 76 156 33z m463
15 c14 -8 28 -7 49 2 24 9 33 9 42 0 9 -10 7 -16 -12 -29 -66 -47 -71 -56 -71
-137 0 -73 -1 -75 -25 -75 l-25 0 0 118 c0 136 2 142 42 121z m289 -15 c21
-23 24 -36 27 -125 4 -107 -3 -123 -47 -100 -13 7 -28 8 -45 1 -42 -16 -82 -2
-102 36 -16 29 -16 36 -3 60 16 31 63 54 109 54 27 0 31 3 28 23 -3 20 -8 22
-60 21 -64 -1 -76 13 -36 40 36 26 100 21 129 -10z m126 15 c8 -8 20 -8 45 1
86 31 120 -14 116 -153 -3 -84 -5 -92 -23 -92 -18 0 -20 8 -23 89 -3 96 -11
116 -47 116 -40 0 -57 -33 -64 -122 -5 -74 -8 -83 -26 -83 -19 0 -20 8 -23
114 -1 63 0 121 2 128 6 16 28 17 43 2z m363 -4 c23 -27 5 -44 -40 -38 -30 4
-45 2 -51 -8 -15 -24 -11 -29 36 -50 86 -38 96 -103 20 -135 -62 -25 -115 -16
-115 21 0 20 3 22 49 17 80 -7 75 33 -10 76 -78 39 -35 131 62 132 21 0 42 -7
49 -15z m238 -16 c3 -26 2 -26 -46 -21 -44 4 -51 2 -70 -23 -12 -15 -22 -40
-22 -55 0 -15 10 -40 22 -55 19 -25 26 -27 70 -23 42 4 48 3 48 -14 0 -25 -44
-41 -92 -33 -65 11 -96 63 -89 150 6 66 58 107 131 103 40 -3 45 -6 48 -29z
m182 19 c0 -5 0 -13 0 -19 0 -5 -13 -15 -29 -20 -37 -13 -42 -25 -50 -124 -6
-77 -7 -80 -31 -80 -14 0 -25 6 -24 13 1 6 2 63 3 125 l1 114 65 -1 c36 -1 65
-4 65 -8z m78 -115 c-3 -106 -6 -128 -18 -128 -17 0 -27 90 -22 194 3 53 6 61
23 61 19 0 19 -7 17 -127z m559 83 c-9 -22 -47 -21 -47 2 0 10 5 23 12 30 16
16 43 -10 35 -32z m1 -184 c3 -17 -2 -22 -17 -22 -16 0 -21 6 -21 26 0 33 33
30 38 -4z m4667 -456 c160 -42 280 -173 316 -343 34 -164 -78 -377 -237 -450
-47 -21 -78 -27 -192 -34 -216 -13 -12166 -11 -12238 2 -160 29 -295 164 -325
325 -24 130 12 277 90 366 44 50 133 108 200 129 54 17 324 18 6196 18 5091 1
6149 -2 6190 -13z"/>
<path d="M4159 9103 c0 -5 0 -27 1 -51 l2 -42 -41 6 c-54 9 -87 -13 -101 -66
-21 -77 9 -111 100 -115 l60 -3 0 139 c0 86 -4 139 -10 139 -5 0 -10 -3 -11
-7z m-14 -119 c12 -12 15 -31 13 -73 -3 -62 -11 -68 -74 -56 -40 7 -58 35 -49
77 14 60 73 88 110 52z"/>
<path d="M5305 8973 c1 -92 6 -138 14 -141 7 -2 11 19 11 67 0 64 2 72 25 87
15 10 34 14 49 10 29 -7 41 -51 33 -122 -3 -33 -1 -44 9 -44 17 0 20 130 4
160 -15 27 -63 35 -94 15 l-26 -17 0 61 c0 45 -4 61 -14 61 -11 0 -13 -26 -11
-137z"/>
<path d="M6071 9058 c2 -31 -1 -52 -6 -50 -57 17 -107 6 -125 -29 -13 -23 -13
-95 0 -120 8 -15 22 -19 60 -19 28 0 50 5 50 10 0 6 -20 10 -44 10 -48 0 -56
9 -56 64 0 58 61 94 105 63 15 -12 17 -24 13 -80 -5 -61 -4 -67 13 -67 18 0
19 9 19 135 0 116 -2 135 -16 135 -12 0 -15 -10 -13 -52z"/>
<path d="M6163 8970 c-2 -117 0 -140 12 -140 12 0 15 24 15 140 0 105 -3 140
-12 140 -10 0 -14 -36 -15 -140z"/>
<path d="M8460 8970 c0 -87 4 -140 10 -140 6 0 10 28 10 65 0 70 20 105 58
105 36 0 52 -32 52 -105 0 -53 3 -66 12 -57 15 15 15 121 -1 149 -14 28 -57
40 -82 24 -33 -20 -39 -12 -39 44 0 30 -4 55 -10 55 -6 0 -10 -53 -10 -140z"/>
<path d="M9035 9100 c3 -5 13 -10 21 -10 8 0 14 5 14 10 0 6 -9 10 -21 10 -11
0 -17 -4 -14 -10z"/>
<path d="M10460 9094 c0 -9 5 -14 12 -12 18 6 21 28 4 28 -9 0 -16 -7 -16 -16z"/>
<path d="M11640 8970 c0 -87 4 -140 10 -140 6 0 10 30 10 69 0 61 3 72 22 85
l22 16 -22 0 c-20 0 -22 5 -22 55 0 30 -4 55 -10 55 -6 0 -10 -53 -10 -140z"/>
<path d="M14012 9097 c-6 -6 -14 -26 -18 -42 -4 -17 -12 -34 -18 -38 -8 -6 -7
-10 2 -14 8 -3 12 -31 12 -89 0 -69 3 -84 15 -84 14 0 15 10 9 59 -8 70 0 111
21 111 8 0 15 5 15 10 0 6 -7 10 -15 10 -8 0 -15 4 -15 9 0 5 -3 16 -6 25 -4
10 3 19 20 27 14 7 26 16 26 21 0 13 -36 9 -48 -5z"/>
<path d="M14773 9065 c4 -26 7 -87 7 -135 l0 -87 46 -7 c85 -11 109 10 116
101 4 59 -50 95 -101 69 -17 -9 -32 -16 -35 -16 -3 0 -6 26 -8 57 -2 37 -8 58
-17 61 -11 4 -13 -5 -8 -43z m126 -81 c20 -15 23 -23 18 -62 -11 -100 -112
-98 -112 2 0 67 44 95 94 60z"/>
<path d="M15000 8970 c0 -87 4 -140 10 -140 6 0 10 53 10 140 0 87 -4 140 -10
140 -6 0 -10 -53 -10 -140z"/>
<path d="M3156 9083 c-3 -3 -6 -62 -6 -130 0 -103 2 -123 15 -123 12 0 15 14
15 65 l0 65 70 0 70 0 0 -65 c0 -51 3 -65 15 -65 13 0 15 21 15 130 0 136 -13
173 -24 70 l-7 -60 -69 0 c-77 0 -74 -3 -70 71 1 35 -10 56 -24 42z"/>
<path d="M9141 9043 c-7 -18 -20 -34 -29 -36 -12 -3 -10 -5 6 -6 21 -1 22 -5
22 -69 0 -74 15 -106 45 -101 30 6 30 29 1 29 -25 0 -26 1 -26 70 0 70 0 70
28 70 l27 1 -25 14 c-14 7 -27 24 -30 36 -5 22 -6 22 -19 -8z"/>
<path d="M9686 9061 c-4 -6 -4 -11 0 -11 4 0 -1 -9 -11 -20 -14 -16 -15 -23
-6 -34 7 -8 15 -39 17 -68 8 -89 12 -98 39 -98 30 0 33 16 5 23 -19 5 -21 12
-18 74 3 58 5 68 21 65 21 -4 23 16 2 24 -9 4 -22 18 -29 32 -8 16 -16 21 -20
13z"/>
<path d="M10980 9054 c0 -9 -9 -25 -20 -34 -20 -17 -20 -18 -1 -23 18 -4 21
-15 23 -83 3 -78 3 -79 31 -82 19 -2 27 1 27 12 0 9 -9 16 -20 16 -19 0 -21 5
-18 73 3 62 5 72 21 69 24 -4 22 15 -3 23 -11 3 -20 15 -20 26 0 10 -4 19 -10
19 -5 0 -10 -7 -10 -16z"/>
<path d="M14467 9036 c-4 -11 -19 -16 -45 -16 -22 0 -53 -3 -69 -6 l-29 -6 0
-84 c1 -60 5 -84 14 -84 8 0 12 16 12 48 0 26 3 64 6 85 6 34 9 37 41 37 62 0
73 -13 73 -85 0 -76 6 -95 30 -95 26 0 35 19 13 27 -28 10 -33 23 -31 81 0 40
5 55 17 59 44 14 46 16 17 24 -16 4 -32 13 -36 19 -5 8 -9 7 -13 -4z"/>
<path d="M4694 8995 c-8 -20 -23 -58 -32 -83 -10 -26 -22 -47 -26 -47 -5 0
-17 29 -26 64 -16 57 -50 114 -50 83 0 -11 6 -26 50 -127 20 -47 11 -98 -20
-118 -25 -15 -26 -27 -1 -27 20 0 63 79 91 165 7 22 21 57 31 77 12 23 15 39
9 43 -6 4 -17 -10 -26 -30z"/>
<path d="M4998 9024 c-5 -4 -8 -42 -8 -84 0 -99 15 -117 87 -104 l48 9 3 83
c2 56 -1 82 -8 77 -5 -3 -10 -33 -10 -65 0 -62 -15 -90 -49 -90 -39 0 -50 22
-53 103 -2 44 -6 75 -10 71z"/>
<path d="M7345 9021 c-39 -16 -60 -51 -60 -98 0 -37 5 -49 28 -69 31 -27 54
-30 92 -12 72 32 71 139 0 173 -37 17 -33 17 -60 6z m61 -29 c63 -41 21 -154
-50 -136 -54 13 -71 72 -35 118 20 26 61 35 85 18z"/>
<path d="M7518 9024 c-12 -11 -10 -117 3 -152 12 -35 28 -41 89 -33 l45 6 3
79 c2 44 -1 83 -7 89 -6 6 -9 -16 -8 -61 1 -45 -3 -76 -10 -83 -13 -13 -78
-17 -89 -6 -4 3 -9 43 -13 88 -3 44 -9 77 -13 73z"/>
<path d="M10310 9016 c0 -7 7 -19 15 -26 10 -8 15 -31 15 -70 0 -70 7 -90 29
-90 29 0 33 13 11 30 -16 12 -22 30 -25 79 -3 48 -1 62 9 58 7 -3 19 -1 27 3
10 7 7 11 -14 19 -39 15 -67 14 -67 -3z"/>
<path d="M3441 8994 c-41 -34 -43 -88 -4 -134 24 -29 31 -32 67 -27 54 7 76
36 76 96 0 37 -5 52 -23 69 -32 30 -78 28 -116 -4z m108 -20 c28 -35 26 -69
-4 -99 -27 -28 -33 -29 -72 -14 -34 13 -43 25 -43 66 0 22 8 38 26 52 36 28
68 26 93 -5z"/>
<path d="M3848 9005 c-4 -11 -9 -36 -13 -55 -17 -90 -28 -92 -53 -7 -21 65
-43 81 -52 37 -10 -42 -40 -101 -55 -107 -18 -6 -20 -29 -4 -39 16 -10 29 8
48 64 9 28 21 51 26 52 6 1 21 -26 34 -60 23 -56 26 -60 38 -43 20 27 45 118
41 150 -3 24 -4 25 -10 8z"/>
<path d="M4268 8990 c-27 -28 -30 -36 -25 -73 11 -83 91 -114 148 -58 38 39
39 87 3 130 -36 43 -84 43 -126 1z m106 -5 c23 -24 28 -52 16 -90 -13 -39 -41
-52 -82 -36 -34 13 -41 26 -40 70 2 59 68 94 106 56z"/>
<path d="M4776 8989 c-35 -41 -34 -87 1 -129 24 -29 31 -32 66 -27 51 7 77 33
84 84 4 32 1 44 -22 71 -38 45 -92 45 -129 1z m108 -8 c27 -29 24 -91 -5 -114
-25 -20 -76 -17 -91 6 -14 22 -9 90 9 109 21 24 65 23 87 -1z"/>
<path d="M5544 9006 c-27 -20 -14 -28 23 -14 38 14 66 -3 61 -36 -2 -17 -11
-21 -41 -22 -45 -1 -62 -13 -21 -15 16 -1 38 -2 49 -3 14 -1 20 -8 20 -25 0
-44 -87 -53 -100 -10 -4 10 -11 19 -16 19 -12 0 -11 -4 2 -34 13 -29 25 -32
85 -28 l43 4 3 51 c3 55 -8 107 -26 119 -18 12 -61 9 -82 -6z"/>
<path d="M5763 9013 l-43 -4 0 -90 c0 -65 3 -90 12 -87 7 3 12 29 13 69 3 89
2 86 37 91 50 8 68 -18 68 -97 0 -37 4 -65 10 -65 6 0 10 31 10 74 0 69 -2 76
-26 95 -15 12 -29 20 -33 19 -3 -1 -25 -3 -48 -5z"/>
<path d="M6273 8998 c-43 -46 -38 -134 8 -158 22 -12 79 -13 98 -1 19 12 -4
24 -34 17 -38 -10 -77 10 -73 37 3 19 10 22 61 25 76 4 74 22 -3 22 -54 0 -60
2 -60 20 0 13 10 24 26 30 36 14 42 13 69 -15 21 -20 25 -21 25 -7 0 30 -16
43 -56 49 -32 4 -43 1 -61 -19z"/>
<path d="M6605 9013 l-40 -4 -3 -89 c-2 -52 1 -90 6 -90 13 0 22 36 22 96 0
54 12 74 46 74 35 0 48 -26 48 -101 1 -48 5 -69 14 -69 8 0 12 22 12 75 0 62
-4 79 -20 95 -11 11 -26 19 -32 18 -7 -1 -31 -3 -53 -5z"/>
<path d="M6798 9003 c-29 -34 -35 -55 -27 -96 9 -52 40 -79 87 -75 53 5 52 26
-1 26 -54 -1 -67 6 -67 38 0 23 3 24 65 24 37 0 65 4 65 10 0 6 -29 10 -66 10
-62 0 -65 1 -62 22 2 15 13 25 36 32 28 8 36 6 57 -14 19 -18 25 -20 25 -8 0
42 -82 65 -112 31z"/>
<path d="M7052 9013 c34 -5 39 -12 74 -105 21 -56 34 -78 47 -78 10 0 17 8 17
20 0 11 14 51 31 90 30 65 33 90 12 77 -5 -3 -20 -40 -33 -81 -13 -42 -26 -76
-29 -76 -3 0 -19 35 -36 78 l-30 77 -40 1 c-23 1 -28 0 -13 -3z"/>
<path d="M7742 9004 c-34 -24 -25 -55 23 -79 76 -38 75 -63 -2 -67 -53 -3 -56
-4 -35 -16 32 -18 91 -6 102 22 11 30 -3 50 -49 71 -23 10 -41 24 -41 32 0 17
47 35 71 28 23 -8 26 10 3 19 -26 10 -48 7 -72 -10z"/>
<path d="M8032 9013 c-19 -7 -42 -58 -42 -93 0 -38 47 -90 82 -90 49 0 97 49
98 98 0 63 -76 110 -138 85z m90 -30 c22 -19 24 -81 4 -108 -15 -21 -79 -26
-97 -8 -6 6 -13 28 -16 50 -5 35 -2 43 22 61 33 26 62 28 87 5z"/>
<path d="M8250 9011 c-15 -4 -25 -14 -24 -24 0 -9 1 -48 2 -87 3 -91 22 -92
22 -1 0 88 5 101 41 101 16 0 29 5 29 10 0 11 -32 12 -70 1z"/>
<path d="M8701 9001 c-11 -11 -24 -37 -30 -57 -9 -32 -7 -43 10 -70 21 -34 62
-51 99 -39 32 10 23 21 -13 17 -22 -2 -41 3 -60 18 -47 37 -36 50 43 50 67 0
70 1 70 24 0 62 -77 99 -119 57z m73 -11 c16 -6 26 -17 26 -29 0 -16 -9 -20
-51 -23 -60 -4 -76 14 -40 44 27 21 31 21 65 8z"/>
<path d="M8893 9005 c-18 -8 -33 -20 -33 -27 0 -26 30 -56 63 -62 21 -4 38
-15 45 -29 8 -17 11 -18 11 -5 1 19 -49 58 -73 58 -20 0 -32 28 -18 42 5 5 25
11 44 13 18 1 33 6 33 11 0 15 -38 14 -72 -1z"/>
<path d="M9040 8930 c0 -65 3 -90 13 -90 9 0 11 23 9 90 -2 49 -8 90 -13 90
-5 0 -9 -40 -9 -90z"/>
<path d="M9277 9013 c-4 -3 -7 -12 -7 -19 0 -10 7 -10 30 -1 38 14 65 0 65
-34 0 -18 -5 -23 -20 -22 -11 1 -35 -2 -52 -8 -29 -9 -33 -15 -33 -44 0 -47
17 -57 85 -49 l58 7 -6 65 c-8 86 -26 112 -76 112 -21 0 -41 -3 -44 -7z m93
-122 c0 -33 -25 -47 -65 -37 -22 6 -40 41 -29 58 3 4 25 8 50 8 42 0 44 -1 44
-29z"/>
<path d="M9464 9011 c-9 -9 -4 -181 6 -181 6 0 10 26 10 58 0 82 7 100 41 107
48 11 59 -7 59 -91 0 -43 4 -74 10 -74 15 0 13 167 -2 177 -13 8 -116 11 -124
4z"/>
<path d="M9956 9010 c-16 -5 -33 -7 -38 -4 -4 3 -8 -56 -8 -130 0 -84 4 -136
10 -136 6 0 10 23 10 50 l0 51 34 -6 c54 -11 93 15 101 67 7 44 -7 97 -28 110
-15 10 -44 9 -81 -2z m83 -42 c11 -20 13 -35 6 -65 -9 -34 -14 -39 -53 -47
-23 -5 -45 -6 -48 -4 -3 3 -8 30 -11 61 -5 49 -3 56 18 71 33 23 70 17 88 -16z"/>
<path d="M10152 9008 c-19 -19 -14 -30 7 -18 27 14 47 13 65 -6 26 -25 20 -44
-13 -44 -42 0 -48 -18 -9 -22 29 -3 33 -6 33 -33 0 -29 -2 -30 -45 -30 -44 0
-45 1 -45 33 0 17 -4 31 -10 29 -16 -5 -17 -50 -2 -71 12 -16 21 -18 70 -12
l57 7 0 70 c0 56 -4 73 -20 89 -22 22 -69 27 -88 8z"/>
<path d="M10467 9013 c-10 -16 -7 -183 3 -183 6 0 10 38 10 95 0 90 -2 105
-13 88z"/>
<path d="M10565 8995 c-31 -31 -36 -112 -7 -138 22 -20 66 -31 97 -23 41 10
28 26 -19 24 -32 -2 -51 3 -65 16 -37 34 -27 45 47 48 61 3 67 5 70 25 4 30
-39 73 -73 73 -14 0 -37 -11 -50 -25z m87 -12 c38 -34 19 -52 -49 -45 -46 4
-52 15 -26 44 20 22 51 23 75 1z"/>
<path d="M10757 9013 c-11 -10 -8 -171 3 -178 6 -4 10 16 10 52 0 74 16 107
54 111 39 5 46 -10 46 -96 0 -55 3 -73 13 -69 8 3 11 26 10 77 -2 59 -6 78
-22 94 -19 18 -24 19 -57 7 -27 -10 -38 -10 -43 -2 -4 6 -10 8 -14 4z"/>
<path d="M11105 9000 c-26 -29 -13 -64 32 -85 21 -10 42 -24 46 -31 11 -19 27
-18 27 1 0 8 -21 25 -47 38 -57 27 -71 62 -28 73 14 3 34 4 45 1 13 -3 20 0
20 9 0 22 -73 18 -95 -6z"/>
<path d="M11344 9003 c3 -10 10 -37 15 -61 5 -24 12 -46 15 -49 10 -11 6 63
-5 96 -11 32 -35 45 -25 14z"/>
<path d="M11450 8995 c0 -14 4 -25 9 -25 5 0 19 -29 31 -65 23 -69 45 -84 56
-37 3 15 9 41 14 57 15 56 20 95 11 95 -5 0 -15 -31 -21 -70 -18 -105 -36
-101 -60 13 -7 37 -16 57 -26 57 -8 0 -14 -10 -14 -25z"/>
<path d="M11715 9008 c37 -20 45 -40 45 -110 0 -39 4 -68 10 -68 6 0 10 33 10
79 0 71 -2 82 -22 95 -12 9 -32 16 -43 16 -20 -1 -20 -1 0 -12z"/>
<path d="M11877 8996 c-45 -42 -47 -86 -6 -136 16 -19 31 -25 61 -25 72 0 110
74 73 144 -24 48 -86 56 -128 17z m103 -16 c22 -22 26 -70 10 -101 -8 -14 -21
-19 -54 -19 -52 0 -70 17 -70 67 0 62 72 95 114 53z"/>
<path d="M12195 9006 c-25 -18 -11 -35 16 -18 25 16 67 5 74 -19 8 -25 -1 -38
-23 -32 -11 2 -35 -2 -55 -11 -28 -11 -37 -21 -37 -38 0 -47 16 -54 103 -50
l37 2 0 63 c0 82 -15 111 -60 115 -19 2 -44 -4 -55 -12z m93 -113 c4 -28 -34
-49 -72 -39 -19 5 -26 13 -26 30 0 29 13 36 60 33 28 -2 36 -7 38 -24z"/>
<path d="M12387 9013 c-4 -3 -7 -46 -7 -95 0 -72 3 -88 15 -88 12 0 15 16 16
78 1 42 1 82 0 89 -1 6 13 14 31 16 30 3 30 4 -8 5 -22 1 -44 -1 -47 -5z"/>
<path d="M12529 8991 c-33 -34 -40 -91 -14 -128 17 -24 71 -39 104 -28 35 11
13 25 -39 25 -35 0 -50 4 -54 16 -11 29 13 44 71 44 l56 0 -7 33 c-7 36 -38
67 -68 67 -11 0 -33 -13 -49 -29z m80 -1 c4 0 13 -11 19 -25 l12 -25 -60 0
c-33 0 -60 3 -60 8 1 22 47 54 68 47 8 -3 17 -5 21 -5z"/>
<path d="M12820 8943 c0 -43 4 -83 8 -89 12 -18 44 -25 89 -18 l43 6 0 89 c0
53 -4 89 -10 89 -6 0 -10 -31 -10 -74 0 -87 -12 -104 -63 -90 l-32 10 -3 77
c-4 101 -22 100 -22 0z"/>
<path d="M13100 9009 c0 -5 4 -8 8 -5 5 3 19 -4 30 -15 19 -17 22 -31 22 -89
0 -58 3 -70 16 -70 14 0 16 8 10 53 -3 28 -6 61 -6 73 0 11 -9 30 -20 42 -21
23 -60 30 -60 11z"/>
<path d="M13269 8990 c-28 -28 -31 -35 -25 -73 8 -54 46 -89 89 -85 51 5 44
26 -10 30 l-48 3 -3 52 c-3 46 0 54 22 69 17 10 35 14 52 10 19 -5 25 -3 22 6
-3 7 -19 14 -36 16 -25 3 -39 -4 -63 -28z"/>
<path d="M13446 9001 c-16 -18 -36 -72 -36 -99 0 -27 57 -72 92 -72 38 0 48 6
71 40 42 61 -1 150 -72 150 -24 0 -44 -7 -55 -19z m99 -17 c11 -12 15 -31 13
-67 -3 -45 -6 -51 -30 -59 -19 -7 -36 -5 -55 4 -23 11 -29 21 -31 55 -2 32 2
47 17 62 25 25 64 27 86 5z"/>
<path d="M13693 9013 l-43 -4 0 -90 c0 -53 4 -89 10 -89 12 0 13 8 11 80 -2
63 4 76 39 84 43 11 54 -6 58 -88 5 -93 22 -101 22 -11 0 52 4 69 20 85 24 24
43 25 65 3 14 -13 16 -31 13 -85 -4 -67 4 -89 16 -45 9 34 7 103 -4 131 -12
33 -51 43 -84 21 -24 -16 -28 -16 -51 -1 -13 9 -26 15 -27 14 -2 -1 -22 -3
-45 -5z"/>
<path d="M14114 8986 c-36 -36 -40 -50 -25 -88 16 -41 50 -68 84 -68 36 0 55
12 81 50 23 35 20 68 -10 107 -35 47 -83 46 -130 -1z m113 -8 c30 -28 30 -69
0 -104 -20 -23 -28 -26 -60 -20 -59 11 -78 78 -35 123 27 29 65 29 95 1z"/>
<path d="M14605 9000 c-20 -22 -6 -27 25 -8 25 16 54 1 58 -31 3 -17 -2 -21
-25 -21 -33 0 -93 -34 -93 -52 0 -7 9 -24 19 -37 16 -21 22 -22 72 -14 33 5
54 13 53 21 -1 6 -2 39 -2 71 -2 67 -18 91 -61 91 -15 0 -36 -9 -46 -20z m85
-103 c0 -30 -18 -47 -50 -47 -30 0 -50 16 -50 41 0 19 17 26 68 28 27 1 32 -2
32 -22z"/>
<path d="M15114 8993 c-33 -36 -38 -63 -21 -106 18 -42 46 -59 89 -55 49 5 43
23 -8 23 -46 1 -67 15 -61 45 1 10 18 15 61 16 67 2 81 15 60 56 -28 54 -81
63 -120 21z m96 -18 c13 -14 22 -27 19 -29 -2 -2 -30 -6 -61 -8 -51 -4 -58 -2
-58 13 0 20 36 49 60 49 9 0 27 -11 40 -25z"/>
<path d="M3637 8963 c9 -69 22 -98 22 -52 1 48 -9 99 -20 99 -5 0 -6 -21 -2
-47z"/>
<path d="M6980 8920 c0 -53 4 -90 10 -90 6 0 10 26 10 58 0 31 4 72 9 90 9 28
7 32 -10 32 -17 0 -19 -8 -19 -90z"/>
<path d="M13047 9003 c-10 -10 -8 -163 2 -163 5 0 6 20 3 45 -5 47 12 105 32
105 6 0 4 5 -4 10 -18 12 -24 12 -33 3z"/>
<path d="M11420 8904 c-7 -19 -18 -38 -26 -41 -21 -8 -17 -23 5 -23 20 0 24 8
36 68 9 43 -1 41 -15 -4z"/>
<path d="M8870 8850 c0 -14 38 -22 70 -15 46 10 36 21 -20 23 -27 0 -50 -3
-50 -8z"/>
<path d="M11095 8851 c-3 -5 -1 -13 5 -16 15 -9 90 4 90 16 0 12 -87 12 -95 0z"/>
<path d="M6910 8508 c-1 -18 -3 -72 -6 -119 -8 -111 1 -129 61 -129 58 0 94
30 101 85 5 35 2 44 -26 73 -32 32 -54 40 -64 23 -3 -5 8 -14 24 -20 29 -9 50
-43 50 -77 0 -26 -47 -64 -80 -64 -39 0 -56 36 -42 92 6 24 6 40 1 44 -6 3 -7
31 -3 65 5 41 3 59 -5 59 -6 0 -11 -15 -11 -32z"/>
<path d="M7934 8400 c0 -77 3 -140 8 -140 4 0 8 31 8 70 0 63 2 71 25 86 21
14 31 15 50 6 26 -12 31 -36 26 -124 -2 -29 1 -38 13 -38 23 0 23 126 0 159
-15 21 -22 23 -65 18 l-49 -6 0 54 c0 30 -4 55 -8 55 -4 0 -8 -63 -8 -140z"/>
<path d="M8340 8524 c0 -9 5 -14 12 -12 18 6 21 28 4 28 -9 0 -16 -7 -16 -16z"/>
<path d="M8800 8486 l0 -55 -34 6 c-54 9 -83 -3 -95 -38 -17 -49 -13 -93 9
-117 22 -23 74 -30 85 -12 4 6 -5 10 -20 10 -46 0 -65 17 -65 58 0 53 23 82
64 82 45 0 58 -19 56 -82 -3 -72 -2 -78 15 -78 12 0 15 18 15 103 0 112 -8
177 -21 177 -5 0 -9 -24 -9 -54z"/>
<path d="M9640 8400 c0 -91 4 -140 11 -140 7 0 9 47 8 140 -1 77 -6 140 -11
140 -4 0 -8 -63 -8 -140z"/>
<path d="M10928 8483 c4 -51 3 -56 -14 -50 -11 3 -29 9 -40 12 -34 10 -84 -40
-91 -90 -6 -52 24 -95 68 -95 16 0 29 5 29 10 0 6 -11 10 -24 10 -26 0 -56 23
-56 43 0 7 5 29 11 49 10 40 34 53 80 46 23 -3 24 -8 27 -80 2 -60 6 -78 17
-78 12 0 15 24 15 140 0 110 -3 140 -13 140 -10 0 -13 -14 -9 -57z"/>
<path d="M11602 8500 c81 -14 87 -29 33 -89 -19 -21 -35 -44 -35 -52 0 -16 53
43 75 84 12 20 13 32 5 47 -9 17 -20 20 -68 19 l-57 -1 47 -8z"/>
<path d="M7576 8477 c-5 -15 -16 -32 -25 -37 -15 -9 -14 -9 2 -10 14 0 17 -10
17 -66 0 -77 12 -104 45 -104 31 0 33 17 3 22 -21 3 -23 8 -23 73 0 69 0 70
28 73 33 4 26 22 -8 22 -18 0 -25 6 -27 28 l-4 27 -8 -28z"/>
<path d="M7802 8461 c-17 -33 -18 -40 -6 -45 10 -4 14 -22 14 -61 0 -31 5 -65
10 -76 13 -22 50 -26 50 -4 0 8 -7 15 -15 15 -22 0 -34 40 -28 88 4 32 10 42
30 47 30 7 21 25 -14 25 -22 0 -25 4 -21 25 7 34 3 32 -20 -14z"/>
<path d="M9316 8465 c-13 -20 -15 -30 -7 -38 6 -6 11 -37 11 -70 0 -32 5 -67
10 -78 12 -22 60 -26 60 -5 0 9 -7 12 -20 9 -19 -5 -20 0 -20 71 0 69 2 76 20
76 11 0 20 5 20 10 0 6 -9 10 -20 10 -12 0 -24 9 -28 21 -8 21 -9 20 -26 -6z"/>
<path d="M7158 8438 c-27 -22 -48 -62 -48 -89 0 -40 45 -89 82 -89 90 0 132
98 69 161 -32 31 -76 38 -103 17z m102 -53 c5 -14 5 -37 -1 -59 -11 -41 -44
-55 -88 -40 -22 8 -27 16 -29 53 -2 30 2 49 13 61 33 37 88 29 105 -15z"/>
<path d="M8340 8350 c0 -60 4 -100 10 -100 6 0 10 40 10 100 0 60 -4 100 -10
100 -6 0 -10 -40 -10 -100z"/>
<path d="M8500 8440 c-12 -8 -11 -10 8 -10 12 0 22 5 22 10 0 13 -11 13 -30 0z"/>
<path d="M9908 8439 c-28 -16 -21 -26 14 -21 38 6 58 -16 58 -65 0 -39 -30
-73 -62 -73 -44 0 -53 15 -53 86 0 45 -4 69 -12 72 -10 3 -13 -29 -13 -137 0
-87 4 -141 10 -141 6 0 10 25 10 55 l0 56 49 -7 c41 -5 52 -3 70 15 28 28 30
120 4 143 -25 22 -55 29 -75 17z"/>
<path d="M10130 8440 c0 -5 4 -10 9 -10 6 0 13 5 16 10 3 6 -1 10 -9 10 -9 0
-16 -4 -16 -10z"/>
<path d="M10233 8436 c-39 -18 -53 -43 -53 -95 0 -36 4 -44 33 -61 40 -25 85
-25 115 -2 33 25 37 112 7 141 -28 27 -64 33 -102 17z m95 -33 c19 -26 15 -80
-8 -103 -43 -43 -120 -11 -120 48 0 68 89 105 128 55z"/>
<path d="M10463 8436 c-39 -18 -53 -43 -53 -95 0 -31 6 -44 27 -61 28 -22 93
-25 100 -4 2 6 -7 9 -24 7 -16 -3 -40 0 -55 6 -24 9 -28 16 -28 52 0 49 28 78
78 79 22 0 32 4 30 13 -6 17 -38 19 -75 3z"/>
<path d="M10633 8435 c-53 -22 -67 -111 -26 -157 18 -20 113 -26 113 -8 0 6
-18 10 -39 10 -54 0 -71 8 -71 35 0 18 7 24 38 29 20 3 49 6 65 6 30 0 34 14
16 54 -16 34 -57 47 -96 31z m75 -27 c35 -28 -2 -52 -68 -44 -39 5 -42 20 -8
49 21 18 49 16 76 -5z"/>
<path d="M11148 8370 l-3 -85 -32 -3 c-60 -6 -73 10 -73 88 0 40 -4 70 -10 70
-6 0 -10 -28 -10 -65 0 -104 25 -127 119 -109 l31 7 0 76 c0 110 -18 128 -22
21z"/>
<path d="M11295 8440 c-3 -5 1 -10 9 -10 9 0 16 5 16 10 0 6 -4 10 -9 10 -6 0
-13 -4 -16 -10z"/>
<path d="M6717 8433 c-4 -3 -7 -12 -7 -20 0 -11 4 -11 20 -3 30 16 74 9 78
-13 2 -10 -4 -19 -15 -23 -34 -11 -98 -38 -106 -45 -5 -4 -1 -21 7 -38 16 -30
19 -31 81 -31 l65 0 0 74 c0 89 -12 106 -74 106 -23 0 -46 -3 -49 -7z m88 -94
c4 -5 4 -21 1 -35 -5 -18 -13 -24 -34 -24 -36 0 -67 22 -59 43 5 13 20 19 74
26 6 0 15 -4 18 -10z"/>
<path d="M7344 8404 c-9 -47 1 -102 22 -125 21 -23 57 -25 74 -4 11 13 8 14
-16 10 -49 -9 -59 6 -58 85 2 74 -11 94 -22 34z"/>
<path d="M7481 8350 c0 -49 4 -90 9 -90 5 0 10 41 12 90 2 64 0 90 -9 90 -8 0
-12 -28 -12 -90z"/>
<path d="M8157 8422 c-23 -26 -22 -110 1 -140 15 -19 26 -23 62 -20 24 2 45 8
47 15 3 8 -6 10 -30 6 -44 -7 -79 11 -75 39 3 19 11 22 57 25 30 2 59 7 63 11
10 10 -8 63 -25 74 -23 15 -83 8 -100 -10z m103 -22 c12 -23 8 -26 -57 -33
-48 -6 -59 3 -43 33 15 28 85 28 100 0z"/>
<path d="M8907 8411 c-24 -40 -22 -102 3 -129 15 -16 32 -22 65 -22 51 0 73
19 23 21 -60 2 -83 13 -83 39 0 23 4 25 60 28 63 3 87 14 68 33 -8 8 -13 8
-17 0 -10 -16 -116 -14 -116 2 0 34 58 49 101 27 10 -6 19 -7 19 -2 0 19 -27
32 -65 32 -34 0 -43 -5 -58 -29z"/>
<path d="M9096 8430 c-1 -3 0 -42 2 -87 4 -94 22 -114 22 -25 0 91 6 102 51
102 48 0 59 -21 59 -111 0 -38 4 -58 10 -54 17 10 12 137 -6 163 -13 19 -23
22 -75 19 -34 -1 -62 -4 -63 -7z"/>
<path d="M9460 8430 c-21 -13 -6 -22 21 -12 32 12 69 -2 69 -27 0 -21 -18 -31
-56 -31 -13 0 -24 -3 -24 -8 0 -4 18 -6 41 -4 l40 4 -3 -33 c-3 -32 -5 -34
-45 -37 -34 -3 -42 0 -48 17 -3 12 -3 25 0 31 3 5 1 10 -5 10 -19 0 -23 -30
-6 -55 14 -22 22 -24 71 -22 l55 2 6 42 c6 44 -2 100 -18 121 -12 14 -76 16
-98 2z"/>
<path d="M10062 8350 c-3 -75 -1 -90 11 -90 12 0 16 17 19 81 3 71 -3 99 -21
99 -4 0 -8 -41 -9 -90z"/>
<path d="M11239 8436 c-8 -8 3 -176 12 -176 5 0 10 32 11 70 1 39 2 78 2 87 1
16 -15 28 -25 19z"/>
<path d="M11375 8408 c-22 -26 -26 -39 -21 -66 8 -54 42 -84 90 -80 22 2 41 8
43 15 3 8 -6 10 -30 6 -41 -6 -77 11 -77 36 0 24 19 31 86 31 40 0 54 4 54 14
0 15 -11 15 -100 1 -40 -6 -53 7 -33 34 14 20 22 23 61 18 24 -3 48 -11 53
-18 6 -10 9 -10 9 -2 0 19 -42 43 -76 43 -24 0 -39 -8 -59 -32z"/>
<path d="M8440 8345 c0 -50 4 -85 10 -85 6 0 10 29 10 66 0 36 5 74 10 85 9
16 7 19 -10 19 -19 0 -20 -6 -20 -85z"/>
<path d="M11606 8283 c-11 -11 -6 -23 9 -23 8 0 15 4 15 9 0 13 -16 22 -24 14z"/>
<path d="M10304 2372 c-18 -11 -34 -49 -34 -77 0 -43 28 -75 65 -75 43 0 60
23 60 80 0 26 -6 54 -14 63 -14 17 -57 22 -77 9z"/>
<path d="M8297 2362 c-23 -25 -13 -32 45 -32 45 0 49 2 46 23 -4 30 -66 37
-91 9z"/>
<path d="M9056 2277 c-27 -20 -17 -51 17 -55 35 -4 57 13 57 44 0 20 -5 24
-28 24 -16 0 -36 -6 -46 -13z"/>
<path d="M26780 6821 c-25 -47 1 -101 48 -101 42 0 62 69 30 107 -16 20 -66
16 -78 -6z"/>
<path d="M27023 6834 c-8 -4 -13 -25 -13 -54 0 -40 4 -50 20 -55 48 -15 76 18
68 81 -2 24 -8 29 -33 31 -16 1 -36 0 -42 -3z"/>
<path d="M27446 6818 c-41 -59 12 -121 75 -88 22 12 27 78 7 98 -20 20 -65 14
-82 -10z"/>
<path d="M27886 6824 c-9 -23 -8 -24 18 -24 41 0 58 10 45 26 -16 19 -55 18
-63 -2z"/>
<path d="M28270 6821 c-25 -48 -1 -101 45 -101 45 0 72 71 39 104 -22 23 -71
20 -84 -3z"/>
<path d="M23501 5671 c-26 -26 -27 -73 -3 -93 9 -9 36 -25 60 -37 71 -36 50
-88 -33 -79 -47 6 -59 -4 -26 -22 36 -19 90 -12 116 15 43 42 28 86 -40 116
-50 22 -68 41 -59 62 7 20 37 27 81 20 31 -5 35 -4 31 13 -5 29 -99 33 -127 5z"/>
<path d="M23685 5634 c-25 -33 -26 -37 -11 -53 10 -11 16 -36 16 -65 0 -63 13
-86 50 -86 36 0 42 27 8 32 -20 3 -23 10 -26 59 -3 54 -2 57 23 63 31 8 28 30
-4 34 -19 3 -22 8 -17 28 9 34 -7 30 -39 -12z"/>
<path d="M24178 5643 c-13 -27 -16 -28 -106 -31 l-92 -3 2 -92 1 -92 10 88 c6
48 14 87 19 87 10 0 12 -15 16 -117 2 -40 22 -64 22 -26 0 10 5 41 12 69 10
42 17 53 40 62 31 11 64 6 71 -11 2 -7 2 -29 -1 -50 l-4 -38 -39 6 -39 7 0
-37 c0 -21 4 -34 10 -30 6 3 10 15 10 26 0 12 7 19 20 19 18 0 20 -7 20 -72 0
-98 -13 -140 -56 -177 -39 -34 -78 -40 -122 -17 -27 14 -91 85 -126 139 -9 16
-20 26 -23 24 -14 -14 89 -152 128 -173 41 -21 115 -18 149 6 45 32 70 95 70
178 0 72 7 85 30 57 13 -16 60 -21 60 -7 0 5 -9 17 -20 27 -15 13 -20 31 -20
67 0 41 3 51 20 55 29 8 24 23 -10 29 -25 5 -28 9 -20 25 13 24 13 29 -4 29
-8 0 -21 -12 -28 -27z"/>
<path d="M23936 5632 c-3 -5 -28 -12 -56 -16 -34 -5 -50 -11 -50 -21 0 -11 12
-15 45 -15 25 0 48 -1 52 -2 4 -2 10 10 14 26 8 30 6 45 -5 28z"/>
<path d="M23820 5510 c-11 -11 -20 -27 -20 -35 0 -8 9 -20 20 -27 11 -7 20
-20 20 -28 0 -9 9 -16 21 -17 17 -2 20 3 17 30 -2 24 -8 33 -25 35 -44 6 -19
36 33 41 l32 2 -2 -56 c0 -35 -6 -59 -15 -64 -16 -10 -6 -31 15 -31 11 0 14
18 14 85 l0 85 -45 0 c-32 0 -51 -6 -65 -20z"/>
<path d="M31110 5655 c0 -51 -2 -56 -17 -50 -46 19 -65 17 -93 -10 -37 -36
-47 -86 -23 -125 20 -34 16 -33 106 -34 l68 -1 -3 135 c-3 119 -5 135 -20 138
-16 3 -18 -5 -18 -53z m-16 -81 c9 -8 16 -31 16 -49 0 -55 -42 -81 -91 -55
-25 14 -25 60 2 94 23 29 50 33 73 10z"/>
<path d="M30366 5669 c-48 -38 -30 -86 44 -124 79 -40 62 -94 -25 -81 -36 6
-45 4 -45 -8 0 -9 15 -19 37 -25 30 -8 45 -7 80 9 41 18 49 30 43 70 -2 20
-27 44 -69 67 -19 10 -39 27 -45 36 -16 26 19 50 59 43 34 -6 61 6 51 23 -13
20 -101 13 -130 -10z"/>
<path d="M30571 5589 c-39 -39 -43 -94 -8 -135 18 -21 32 -26 65 -26 47 1 62
7 62 27 0 11 -6 11 -30 2 -25 -10 -34 -8 -57 9 -46 35 -41 44 25 44 74 0 91
14 67 60 -15 29 -49 50 -80 50 -7 0 -27 -14 -44 -31z m98 -25 c12 -11 11 -15
-13 -24 -34 -13 -73 -13 -81 0 -3 5 4 19 15 30 22 22 52 20 79 -6z"/>
<path d="M30766 5613 c-3 -3 -6 -46 -6 -95 0 -80 2 -89 18 -86 14 3 18 17 22
73 l5 70 36 3 c43 4 49 -9 49 -101 0 -42 3 -58 13 -55 13 5 22 116 12 155 -8
32 -38 46 -79 35 -18 -5 -40 -6 -48 -1 -8 5 -18 6 -22 2z"/>
<path d="M25805 5666 c-28 -28 -29 -34 -15 -70 6 -16 28 -34 65 -51 30 -15 55
-33 55 -40 0 -27 -47 -48 -91 -41 -35 6 -40 4 -37 -11 2 -12 16 -20 40 -24 79
-13 148 41 119 94 -7 13 -32 33 -56 45 -83 40 -80 88 5 86 41 0 50 3 48 15 -2
12 -17 17 -56 19 -44 3 -55 -1 -77 -22z"/>
<path d="M26004 5648 c-4 -13 -14 -29 -23 -35 -15 -12 -14 -14 2 -24 13 -8 17
-23 17 -69 0 -62 21 -100 54 -100 26 0 30 23 8 38 -18 12 -22 24 -22 67 0 44
3 54 20 58 26 7 26 27 1 34 -11 3 -21 14 -23 26 -4 29 -25 32 -34 5z"/>
<path d="M26148 5591 c-39 -35 -43 -86 -12 -128 37 -50 128 -41 153 14 20 43
13 82 -18 114 -39 38 -80 39 -123 0z m106 -27 c13 -34 5 -71 -19 -94 l-25 -24
-28 21 c-32 24 -41 73 -17 97 21 21 81 21 89 0z"/>
<path d="M26357 5613 c-11 -10 -8 -271 2 -277 23 -15 41 7 41 50 l0 44 44 0
c36 0 48 5 65 26 26 33 29 115 5 138 -22 22 -59 30 -83 16 -15 -7 -27 -8 -40
0 -23 12 -26 12 -34 3z m127 -49 c28 -72 -37 -141 -78 -82 -19 26 -20 37 -6
72 8 21 16 26 44 26 22 0 36 -6 40 -16z"/>
<path d="M28020 5555 c0 -74 3 -135 8 -135 21 1 31 20 34 65 3 42 6 50 25 53
16 2 29 -10 58 -57 34 -54 65 -79 65 -51 0 9 -30 58 -65 107 -7 10 -4 18 11
31 12 9 25 27 29 40 16 54 -22 82 -110 82 l-55 0 0 -135z m111 95 c24 -13 24
-31 0 -61 -16 -21 -22 -22 -45 -11 -19 8 -26 19 -26 40 0 16 3 32 7 35 10 10
42 8 64 -3z"/>
<path d="M28830 5658 c0 -6 -10 -22 -22 -36 -21 -22 -22 -24 -5 -33 13 -8 17
-23 17 -65 0 -74 12 -94 55 -94 42 0 47 21 10 38 -21 10 -25 18 -25 57 0 39 3
47 25 55 33 13 32 29 -4 41 -22 8 -28 15 -24 30 4 13 0 19 -11 19 -9 0 -16 -5
-16 -12z"/>
<path d="M28273 5600 c-21 -12 -33 -28 -34 -42 -4 -59 1 -82 23 -105 18 -20
30 -23 68 -21 32 2 46 8 48 19 3 14 -4 16 -42 12 -37 -5 -46 -2 -55 15 -14 26
-10 28 62 37 53 7 58 9 53 29 -3 11 -6 27 -6 33 0 13 -50 43 -72 43 -7 0 -28
-9 -45 -20z m87 -40 c0 -21 -19 -30 -62 -30 -25 0 -29 3 -26 23 2 17 11 23 38
28 42 6 50 3 50 -21z"/>
<path d="M28455 5595 c-14 -13 -25 -28 -25 -33 0 -11 57 -55 83 -65 39 -15 2
-53 -43 -43 -17 3 -30 2 -30 -2 0 -14 24 -32 43 -32 28 0 75 31 81 52 6 25
-26 57 -64 65 -20 3 -30 12 -30 23 0 22 18 30 53 23 20 -4 27 -1 27 10 0 34
-62 36 -95 2z"/>
<path d="M28630 5592 c-60 -60 -26 -162 54 -162 43 0 66 9 66 25 0 9 -12 11
-43 8 -31 -4 -46 -1 -56 10 -20 25 -4 37 49 37 54 0 74 18 60 55 -11 28 -31
44 -68 51 -26 5 -36 1 -62 -24z m95 -37 c0 -16 -8 -21 -42 -23 -37 -3 -43 0
-43 16 0 27 10 33 50 30 27 -2 35 -7 35 -23z"/>
<path d="M31425 4080 c-28 -31 -11 -74 31 -78 42 -4 60 18 48 61 -12 40 -50
49 -79 17z"/>
<path d="M31881 4086 c-7 -8 -11 -30 -9 -48 3 -28 7 -33 32 -36 32 -4 46 10
46 49 0 44 -43 66 -69 35z"/>
<path d="M32570 4090 c-25 -25 -25 -55 0 -80 24 -24 29 -24 58 -4 24 17 29 52
10 76 -22 26 -47 29 -68 8z"/>
<path d="M22641 3823 c-15 -53 -14 -63 8 -63 28 0 34 15 26 60 -8 50 -21 51
-34 3z"/>
<path d="M27087 3876 c-40 -31 -43 -124 -3 -151 51 -37 116 4 116 73 0 73 -62
116 -113 78z"/>
<path d="M22866 3798 c-30 -42 -15 -88 29 -88 28 0 45 19 45 50 0 32 -9 46
-37 54 -16 5 -25 1 -37 -16z"/>
<path d="M23090 3726 c0 -22 19 -30 35 -16 22 18 18 30 -10 30 -15 0 -25 -6
-25 -14z"/>
<path d="M26432 3808 c-19 -19 -14 -28 17 -28 34 0 51 18 30 31 -19 12 -33 11
-47 -3z"/>
<path d="M27588 3813 c-10 -3 -18 -11 -18 -19 0 -16 55 -20 65 -5 7 13 -25 29
-47 24z"/>
<path d="M28187 3802 c-33 -36 -16 -92 28 -92 28 0 45 19 45 50 0 26 -26 60
-47 60 -5 0 -17 -8 -26 -18z"/>
<path d="M31799 3503 c-12 -32 1 -77 25 -81 23 -5 56 26 56 50 0 58 -61 82
-81 31z"/>
<path d="M31574 3505 c-31 -47 4 -97 56 -80 44 14 27 105 -20 105 -11 0 -27
-11 -36 -25z"/>
<path d="M32024 3449 c-3 -6 -2 -15 4 -21 15 -15 46 -5 50 15 3 12 -3 17 -22
17 -14 0 -28 -5 -32 -11z"/>
</g>
</svg>
